<?xml version="1.0" encoding="utf-8"?>
<!-- Generator: Adobe Illustrator 19.0.0, SVG Export Plug-In . SVG Version: 6.00 Build 0)  -->
<svg version="1.1" id="Camada_1" xmlns="http://www.w3.org/2000/svg" xmlns:xlink="http://www.w3.org/1999/xlink" x="0px" y="0px"
	 viewBox="-49 141 512 512" style="enable-background:new -49 141 512 512;" xml:space="preserve">
<style type="text/css">
	.st0{fill:#1E2032;}
</style>
<path class="st0" d="M408.6,281.2l-82.5-4l-4.8-53.8c-1-11.3-11.1-19.2-22.9-18.3L2.5,229.4c-11.8,1-20.3,10.5-19.4,21.7L4.3,486.9
	c1,11.3,11.2,19.2,22.9,18.3l15-1.2l-2.4,45.8c-0.6,12.6,9.2,22.8,22.4,23.5L392.3,589c13.2,0.6,24.1-8.6,24.8-21.2L431,304.5
	C431.6,292,421.7,281.8,408.6,281.2z M53.7,286.5l-7.1,134.8L29.1,446L13,268v-0.5V267c1-5,4.4-9,9.6-9.4l261-21.4
	c5.2-0.4,9.7,3,10.5,7.9c0,0.2,0.3,0.2,0.3,0.4c0,0.1,0.3,0.2,0.3,0.4l2.7,30.8l-219-10.5C65.2,264.8,54.3,274,53.7,286.5
	L53.7,286.5z M387.7,523.4l-84.8-99.5l-37.4,34.3l-69.2-80.8L73.6,508.1L84,309v-0.4c1-5.4,6.2-9.3,11.9-9l291.2,14
	c5.8,0.3,10.3,4.7,10.4,10.2c0,0.2,0.3,0.3,0.3,0.5L387.7,523.4L387.7,523.4z"/>
<path class="st0" d="M335,397c17.6,0,32-14.4,32-32s-14.3-32-32-32c-17.6,0-32,14.3-32,32S317.3,397,335,397z"/>
</svg>
