<svg id="Camada_1" data-name="Camada 1" xmlns="http://www.w3.org/2000/svg" viewBox="0 0 364 415.63"><defs><style>.cls-1{fill:#6B7C89;}</style></defs><title>ion-notifications-off</title><path class="cls-1" d="M256,463.66A41.64,41.64,0,0,0,297.48,422h-83A41.63,41.63,0,0,0,256,463.66Z" transform="translate(-74 -48.03)"/><path class="cls-1" d="M131.08,107.17l.06.08-33-33L74,98.38l63.05,63.16A134.48,134.48,0,0,0,121,225.07V339.63L80,381.28V402H377.74l36.19,36.33L438,414l-12.1-12h.32ZM391,225.07c0-63.53-45-117.68-104-131.22V79.27C287,61.57,273.63,48,256,48s-31,13.54-31,31.24V93.85a131.42,131.42,0,0,0-41.75,17.67L391,319.36Z" transform="translate(-74 -48.03)"/></svg>