<?xml version="1.0" encoding="utf-8"?>
<!-- Generator: Adobe Illustrator 22.1.0, SVG Export Plug-In . SVG Version: 6.00 Build 0)  -->
<svg version="1.1" id="Camada_1" xmlns="http://www.w3.org/2000/svg" xmlns:xlink="http://www.w3.org/1999/xlink" x="0px" y="0px"
	 viewBox="0 0 512 512" style="enable-background:new 0 0 512 512;" xml:space="preserve">
<style type="text/css">
	.st0{fill:#6B7C89;}
</style>
<path class="st0" d="M296,136c0-22-18-40-40-40s-40,18-40,40s18,40,40,40S296,158,296,136z M296,376c0-22-18-40-40-40s-40,18-40,40
	s18,40,40,40S296,398,296,376z M296,256c0-22-18-40-40-40s-40,18-40,40s18,40,40,40S296,278,296,256z"/>
</svg>
