<?xml version="1.0" encoding="utf-8"?>
<!-- Generator: Adobe Illustrator 22.1.0, SVG Export Plug-In . SVG Version: 6.00 Build 0)  -->
<svg version="1.1" id="Layer_1" xmlns="http://www.w3.org/2000/svg" xmlns:xlink="http://www.w3.org/1999/xlink" x="0px" y="0px"
	 viewBox="0 0 100 100" style="enable-background:new 0 0 100 100;" xml:space="preserve">
<style type="text/css">
	.st0{fill:#ffff;}
</style>
<path class="st0" d="M64.5,44.6c0-11.6-9.4-20.9-20.9-20.9c-11.6,0-20.9,9.4-20.9,20.9c0,11.6,9.4,20.9,20.9,20.9
	C55.1,65.6,64.5,56.2,64.5,44.6z M80,79.3l-1.8,1.8l-19-19c-4.2,3.7-9.6,6-15.7,6c-13,0-23.5-10.5-23.5-23.5s10.5-23.5,23.5-23.5
	S67,31.6,67,44.6c0,6-2.3,11.5-6,15.7L80,79.3z"/>
</svg>
