<?xml version="1.0" encoding="utf-8"?>
<!-- Generator: Adobe Illustrator 19.0.0, SVG Export Plug-In . SVG Version: 6.00 Build 0)  -->
<svg version="1.1" id="Camada_1" xmlns="http://www.w3.org/2000/svg" xmlns:xlink="http://www.w3.org/1999/xlink" x="0px" y="0px"
	 viewBox="-49 141 512 512" style="enable-background:new -49 141 512 512;" xml:space="preserve">
<style type="text/css">
	.st0{fill:#FFFFFF;}
	.st1{fill:#1E2032;}
</style>
<path class="st0" d="M207,189C92.6,189-1,282.6-1,397s93.6,208,208,208s208-93.6,208-208S321.4,189,207,189z"/>
<path class="st1" d="M207,251.4c34.3,0,62.4,28.1,62.4,62.4s-28.1,62.4-62.4,62.4s-62.4-28.1-62.4-62.4S172.7,251.4,207,251.4
	L207,251.4z"/>
<path class="st1" d="M207,551.8c-52,0-97.8-27-124.8-66.6c1-41.6,83.2-64.5,124.8-64.5s123.8,22.9,124.8,64.5
	C304.8,524.7,259,551.8,207,551.8L207,551.8z"/>
</svg>
